<mxfile host="app.diagrams.net" modified="2023-12-03T12:50:24.366Z" agent="Mozilla/5.0 (Windows NT 10.0; Win64; x64) AppleWebKit/537.36 (KHTML, like Gecko) Chrome/119.0.0.0 Safari/537.36 Edg/119.0.0.0" version="22.1.5" etag="pjvN-I9CTfmgkOa7KY1u" type="github">
  <diagram name="第 1 页" id="IgU2OrdExx5VZicvWzzT">
    <mxGraphModel>
      <root>
        <mxCell id="0" />
        <mxCell id="1" parent="0" />
      </root>
    </mxGraphModel>
  </diagram>
</mxfile>
